<svg viewBox="0 0 100 100" fill="none" xmlns="http://www.w3.org/2000/svg">
  <!-- Brain/Head outline -->
  <path d="M50 10 C30 10 15 25 15 45 C15 55 20 65 25 70 L25 85 C25 90 27 92 30 92 L70 92 C73 92 75 90 75 85 L75 70 C80 65 85 55 85 45 C85 25 70 10 50 10 Z" stroke="#FF6B35" stroke-width="3" fill="none"/>

  <!-- Circuit elements inside head -->
  <circle cx="35" cy="40" r="4" fill="#FF6B35"/>
  <circle cx="65" cy="40" r="4" fill="#FF6B35"/>
  <circle cx="50" cy="55" r="4" fill="#FF6B35"/>

  <!-- Circuit lines -->
  <line x1="35" y1="40" x2="50" y2="55" stroke="#FF6B35" stroke-width="2"/>
  <line x1="65" y1="40" x2="50" y2="55" stroke="#FF6B35" stroke-width="2"/>

  <!-- Additional circuit nodes -->
  <circle cx="50" cy="30" r="3" fill="#FFA500"/>
  <circle cx="28" cy="55" r="3" fill="#FFA500"/>
  <circle cx="72" cy="55" r="3" fill="#FFA500"/>

  <!-- Connecting lines -->
  <line x1="50" y1="30" x2="35" y2="40" stroke="#FFA500" stroke-width="1.5"/>
  <line x1="50" y1="30" x2="65" y2="40" stroke="#FFA500" stroke-width="1.5"/>
  <line x1="28" y1="55" x2="35" y2="40" stroke="#FFA500" stroke-width="1.5"/>
  <line x1="72" y1="55" x2="65" y2="40" stroke="#FFA500" stroke-width="1.5"/>

  <!-- Bottom connector -->
  <rect x="45" y="70" width="10" height="15" rx="2" fill="#FF6B35"/>
</svg>
